<svg width="818" height="384" viewBox="0 0 818 384" fill="none" xmlns="http://www.w3.org/2000/svg">
<path fill-rule="evenodd" clip-rule="evenodd" d="M91.5628 91.0035C96.9688 95.0647 109.332 119.061 116.931 117.105C125.512 114.897 127.576 95.5659 121.54 73.9291C115.504 52.2922 111.937 35.5292 102.316 32.771C98.6142 31.7097 91.0865 29.5382 83.1028 34.1251C75.119 38.7121 49.881 38.7121 41.8972 34.1251C33.9135 29.5382 26.3858 31.7097 22.6839 32.771C13.0629 35.5292 9.4959 52.2922 3.46013 73.9291C-2.57564 95.5659 -0.512116 114.897 8.06914 117.105C15.6683 119.061 28.0312 95.0647 33.4372 91.0035C37.1813 88.1907 47.8398 87.9069 54.8225 87.9982L72.9191 87.9856C79.6927 88.0159 88.2821 88.5388 91.5628 91.0035Z" fill="#595959"/>
<path d="M62.3326 58.3586C64.5536 58.3586 66.3541 56.6292 66.3541 54.4958C66.3541 52.3625 64.5536 50.6331 62.3326 50.6331C60.1116 50.6331 58.3112 52.3625 58.3112 54.4958C58.3112 56.6292 60.1116 58.3586 62.3326 58.3586Z" fill="#ED9111"/>
<path fill-rule="evenodd" clip-rule="evenodd" d="M48.2576 68.0155V62.2213H42.2254V68.0155H36.1932V73.8096H42.2254V79.6038H48.2576V73.8096H54.2898V68.0155H48.2576Z" fill="#FFDD95"/>
<path d="M28.1503 60.2901C32.5923 60.2901 36.1932 56.8312 36.1932 52.5645C36.1932 48.2978 32.5923 44.839 28.1503 44.839C23.7083 44.839 20.1074 48.2978 20.1074 52.5645C20.1074 56.8312 23.7083 60.2901 28.1503 60.2901Z" fill="#E43535"/>
<path d="M76.4077 79.6038C80.8497 79.6038 84.4507 76.1449 84.4507 71.8782C84.4507 67.6115 80.8497 64.1527 76.4077 64.1527C71.9657 64.1527 68.3648 67.6115 68.3648 71.8782C68.3648 76.1449 71.9657 79.6038 76.4077 79.6038Z" fill="#80D25B"/>
<path fill-rule="evenodd" clip-rule="evenodd" d="M88.4722 40.9761H96.5151V48.7016L92.4936 50.8899L88.4722 48.7016V40.9761Z" fill="#ED9111"/>
<path fill-rule="evenodd" clip-rule="evenodd" d="M106.834 48.7017V56.4272H98.7912L96.515 52.5644L98.7912 48.7017H106.834Z" fill="#E43535"/>
<path fill-rule="evenodd" clip-rule="evenodd" d="M78.4185 48.7017V56.4272H86.4614L88.7376 52.5644L86.4614 48.7017H78.4185Z" fill="#5EA7FF"/>
<path fill-rule="evenodd" clip-rule="evenodd" d="M88.4722 64.4098H96.5151V56.6843L92.4936 54.496L88.4722 56.6843V64.4098Z" fill="#22BA8E"/>
<path d="M774.022 339.612C772.285 330.902 764.443 321.244 756.224 320.19C754.736 320.051 753.24 320.038 751.75 320.15C749.012 320.255 746.304 319.748 743.572 319.794C739.604 319.854 734.9 322.608 732.386 325.974C729.595 329.703 727.87 334.243 725.492 338.282C724.756 339.533 723.967 340.732 722.583 340.844C721.317 340.943 720.028 340.344 718.792 340.186C717.555 340.027 716.331 340.686 715.259 341.213C714.775 341.391 714.347 341.723 714.029 342.169C713.825 342.57 713.72 343.025 713.722 343.486C713.41 349.027 715.23 353.369 720.028 355.346C720.981 355.799 722.007 356.023 723.042 356.004C724.026 355.875 724.983 355.561 725.874 355.076C728.706 353.705 731.526 352.025 733.528 349.376C733.737 350.391 733.797 351.437 733.705 352.473C733.381 360.485 733.116 368.364 733.116 376.396H764.649V369.682C767.263 369.142 769.948 368.733 772.515 368.061C775.082 367.389 774.411 365.479 774.47 362.824L774.693 353.178C774.793 348.849 774.893 344.119 774.057 339.764C774.04 339.711 774.028 339.665 774.022 339.612Z" fill="#68E1FD"/>
<path d="M764.637 377.074H733.104C732.948 377.074 732.798 377.005 732.688 376.881C732.577 376.758 732.515 376.59 732.515 376.416C732.515 367.969 732.821 359.622 733.104 352.46C733.104 351.926 733.145 351.379 733.104 350.839C731.038 353.119 728.429 354.568 726.086 355.701C725.136 356.222 724.112 356.552 723.06 356.677C721.946 356.713 720.837 356.488 719.804 356.018C715.094 354.041 712.739 349.706 713.116 343.5C713.116 342.916 713.254 342.343 713.516 341.839C713.898 341.288 714.413 340.872 715 340.64L715.171 340.555C716.231 340.027 717.555 339.375 718.845 339.566C719.33 339.644 719.812 339.752 720.287 339.889C721.011 340.128 721.763 340.246 722.518 340.238C723.608 340.153 724.285 339.158 724.979 337.972C725.874 336.45 726.693 334.823 727.487 333.248C728.747 330.553 730.227 327.995 731.909 325.605C734.641 321.949 739.563 319.247 743.543 319.188C744.861 319.188 746.18 319.267 747.458 319.373C748.871 319.512 750.29 319.569 751.709 319.544H752.156C753.529 319.451 754.907 319.473 756.277 319.61C760.263 320.124 764.408 322.621 767.958 326.64C771.284 330.415 773.698 335.119 774.575 339.547L774.605 339.698C775.465 344.185 775.353 349.014 775.253 353.27L775.029 362.916V364.28C775.082 366.164 775.135 368.121 772.603 368.78C770.837 369.234 769.071 369.57 767.304 369.893L765.173 370.302V376.488C765.159 376.64 765.097 376.782 764.999 376.889C764.902 376.996 764.774 377.062 764.637 377.074ZM733.693 375.757H764.049V369.682C764.046 369.526 764.094 369.374 764.182 369.254C764.27 369.133 764.394 369.051 764.531 369.023C765.403 368.845 766.298 368.681 767.163 368.516C768.882 368.193 770.66 367.857 772.368 367.416C773.881 367.02 773.94 366.289 773.887 364.24C773.887 363.786 773.857 363.311 773.887 362.804L774.11 353.152C774.21 348.975 774.322 344.231 773.492 339.896V339.751C771.879 331.647 764.384 321.889 756.207 320.842C754.897 320.713 753.58 320.694 752.268 320.783H751.82C750.358 320.813 748.896 320.754 747.44 320.605C746.192 320.506 744.891 320.4 743.631 320.427C739.998 320.479 735.388 323.062 732.88 326.356C731.25 328.688 729.811 331.179 728.582 333.801C727.782 335.396 726.952 337.049 726.033 338.604C725.397 339.685 724.432 341.319 722.671 341.457C721.798 341.479 720.926 341.353 720.087 341.082C719.651 340.954 719.208 340.852 718.762 340.779C717.797 340.634 716.696 341.187 715.724 341.668L715.548 341.754C715.171 341.889 714.835 342.138 714.576 342.472C714.428 342.784 714.353 343.133 714.358 343.486C714.04 349.172 716.036 352.947 720.287 354.726C721.165 355.138 722.109 355.342 723.06 355.326C723.976 355.204 724.866 354.908 725.692 354.45C728.235 353.224 731.108 351.603 733.122 348.935C733.191 348.845 733.28 348.777 733.381 348.739C733.481 348.701 733.589 348.694 733.693 348.719C733.797 348.744 733.893 348.8 733.97 348.881C734.048 348.962 734.105 349.065 734.134 349.179C734.362 350.257 734.429 351.37 734.335 352.473C734.005 359.483 733.71 367.567 733.693 375.757Z" fill="#093F68"/>
<path d="M743.26 326.468C743.245 326.714 743.245 326.96 743.26 327.206C743.261 327.466 743.324 327.721 743.442 327.944C743.622 328.17 743.845 328.347 744.095 328.461C744.345 328.575 744.615 328.624 744.885 328.603C746.41 328.722 748.011 328.702 749.406 327.905C749.731 327.718 750.038 327.497 750.325 327.246C750.602 327.002 750.949 326.409 751.255 326.264C751.561 326.119 751.72 326.686 751.973 327.028C752.288 327.434 752.635 327.807 753.01 328.142C753.778 328.946 754.716 329.519 755.736 329.809C756.078 329.903 756.433 329.917 756.781 329.852C757.128 329.786 757.46 329.641 757.755 329.426C758.815 328.517 759.521 326.547 759.05 325.091C758.514 323.424 757.154 322.074 755.883 321.099C755.658 320.924 755.424 320.766 755.182 320.624C753.534 319.669 751.82 318.819 749.93 319.465C747.181 320.4 743.525 322.825 743.26 326.468Z" fill="white"/>
<path d="M756.366 330.54C756.115 330.539 755.864 330.513 755.618 330.461C754.501 330.143 753.473 329.518 752.627 328.642C752.223 328.283 751.851 327.881 751.514 327.443C751.429 327.322 751.354 327.192 751.29 327.055C751.226 327.127 751.167 327.206 751.12 327.265C750.985 327.443 750.837 327.608 750.678 327.76C750.363 328.033 750.026 328.273 749.671 328.478C748.111 329.367 746.351 329.361 744.838 329.242C744.373 329.209 743.413 329.13 742.942 328.3C742.77 327.981 742.675 327.618 742.665 327.246C742.651 326.969 742.651 326.692 742.665 326.416C742.948 322.502 746.657 319.886 749.73 318.832C751.826 318.121 753.693 319.036 755.424 320.038C755.687 320.195 755.943 320.369 756.189 320.558C757.955 321.909 759.091 323.359 759.574 324.867C760.163 326.712 759.262 328.939 758.085 329.947C757.584 330.347 756.981 330.555 756.366 330.54ZM751.373 325.566C751.885 325.566 752.18 326.139 752.285 326.356C752.326 326.444 752.373 326.528 752.427 326.607C752.714 326.981 753.033 327.324 753.381 327.628C754.074 328.357 754.917 328.884 755.836 329.163C756.096 329.241 756.368 329.258 756.634 329.212C756.901 329.167 757.156 329.06 757.384 328.899C758.22 328.188 758.868 326.501 758.485 325.315C758.102 324.129 757.096 322.838 755.541 321.646C755.334 321.486 755.12 321.339 754.9 321.204C753.322 320.295 751.767 319.524 750.089 320.097C747.893 320.842 744.102 323.042 743.849 326.521C743.833 326.74 743.833 326.961 743.849 327.18C743.848 327.328 743.879 327.475 743.937 327.608C744.072 327.852 744.526 327.918 744.926 327.951C746.28 328.056 747.87 328.069 749.142 327.325C749.43 327.158 749.704 326.962 749.96 326.738C750.062 326.635 750.158 326.525 750.248 326.409C750.453 326.099 750.719 325.847 751.026 325.671C751.134 325.611 751.252 325.575 751.373 325.566Z" fill="#093F68"/>
<path d="M762.801 357.559C762.644 357.559 762.495 357.49 762.384 357.366C762.274 357.243 762.212 357.075 762.212 356.9L762.865 334.427C762.865 334.252 762.927 334.085 763.038 333.961C763.148 333.838 763.298 333.768 763.454 333.768C763.61 333.768 763.76 333.838 763.87 333.961C763.981 334.085 764.043 334.252 764.043 334.427L763.389 356.92C763.385 357.092 763.321 357.254 763.211 357.373C763.101 357.493 762.954 357.559 762.801 357.559Z" fill="#093F68"/>
<path d="M732.35 350.022C732.261 350.022 732.172 350 732.091 349.956C731.952 349.878 731.845 349.742 731.796 349.576C731.746 349.411 731.757 349.23 731.826 349.073L738.456 334.137C738.528 333.986 738.65 333.873 738.796 333.821C738.942 333.769 739.1 333.782 739.237 333.859C739.374 333.935 739.479 334.068 739.53 334.229C739.581 334.391 739.573 334.568 739.51 334.724L732.88 349.66C732.831 349.769 732.755 349.861 732.662 349.925C732.568 349.989 732.46 350.023 732.35 350.022Z" fill="#093F68"/>
<path d="M706.914 338.438L731.684 347.89L730.561 351.576L705.791 342.123C705.348 341.954 704.983 341.595 704.776 341.124C704.57 340.654 704.538 340.111 704.69 339.615C704.851 339.133 705.173 338.741 705.589 338.521C706.004 338.302 706.48 338.272 706.914 338.438Z" fill="white"/>
<path d="M730.525 352.223C730.461 352.224 730.398 352.213 730.337 352.19L705.568 342.735C704.99 342.506 704.515 342.034 704.244 341.418C703.972 340.803 703.926 340.094 704.114 339.441C704.32 338.795 704.743 338.265 705.292 337.963C705.842 337.66 706.475 337.609 707.058 337.82L731.826 347.275C731.9 347.302 731.968 347.345 732.026 347.401C732.085 347.458 732.133 347.527 732.168 347.604C732.198 347.684 732.213 347.771 732.213 347.858C732.213 347.945 732.198 348.031 732.168 348.111L731.085 351.814C731.039 351.938 730.962 352.043 730.862 352.116C730.762 352.189 730.645 352.226 730.525 352.223ZM706.316 338.986C706.14 338.985 705.967 339.03 705.81 339.118C705.616 339.24 705.457 339.42 705.351 339.638C705.245 339.856 705.196 340.104 705.21 340.352C705.224 340.6 705.301 340.838 705.431 341.04C705.561 341.241 705.739 341.397 705.945 341.49L730.16 350.714L730.902 348.283L706.687 339.059C706.568 339.011 706.442 338.987 706.316 338.986Z" fill="#093F68"/>
<path d="M733.104 352.42C734.518 352.42 735.665 351.137 735.665 349.554C735.665 347.972 734.518 346.688 733.104 346.688C731.69 346.688 730.543 347.972 730.543 349.554C730.543 351.137 731.69 352.42 733.104 352.42Z" fill="#F56132"/>
<path d="M733.104 353.079C732.481 353.078 731.873 352.87 731.356 352.482C730.838 352.094 730.436 351.543 730.198 350.899C729.961 350.255 729.899 349.546 730.021 348.863C730.144 348.179 730.444 347.552 730.885 347.06C731.326 346.567 731.887 346.232 732.498 346.097C733.108 345.961 733.741 346.032 734.317 346.298C734.892 346.565 735.383 347.017 735.729 347.597C736.075 348.176 736.26 348.858 736.26 349.554C736.258 350.49 735.925 351.386 735.333 352.047C734.742 352.708 733.94 353.079 733.104 353.079ZM733.104 347.347C732.714 347.349 732.333 347.479 732.01 347.722C731.686 347.966 731.434 348.311 731.286 348.714C731.138 349.118 731.099 349.561 731.176 349.989C731.253 350.417 731.441 350.809 731.717 351.117C731.993 351.425 732.345 351.635 732.727 351.72C733.11 351.804 733.506 351.76 733.866 351.593C734.226 351.426 734.534 351.143 734.75 350.78C734.967 350.417 735.082 349.991 735.082 349.554C735.082 349.264 735.031 348.976 734.932 348.708C734.832 348.44 734.686 348.196 734.502 347.991C734.319 347.786 734.101 347.624 733.861 347.513C733.621 347.403 733.364 347.346 733.104 347.347Z" fill="#093F68"/>
<path d="M758.161 344.732C758.244 344.798 758.326 344.863 758.403 344.936C758.523 345.084 758.681 345.188 758.856 345.232C759.015 345.225 759.168 345.165 759.297 345.061C759.962 344.672 760.705 344.48 761.455 344.501C762.205 344.523 762.938 344.759 763.584 345.186C764.437 345.766 765.138 346.899 764.838 347.967C765.374 348.039 765.877 348.293 766.279 348.696C766.682 349.1 766.964 349.631 767.087 350.22C767.307 351.407 767.271 352.636 766.981 353.804C766.645 355.609 766.298 356.69 767.487 358.047C768.435 359.127 769.489 360.103 769.347 361.763C769.193 362.981 768.729 364.125 768.011 365.057C766.479 367.148 764.506 368.781 762.271 369.807C760.24 370.786 758.072 371.359 755.865 371.501C751.567 371.777 747.116 370.288 743.966 367.007C741.698 364.639 740.265 361.438 739.928 357.988C739.775 356.53 739.92 355.052 740.352 353.666C740.817 352.157 740.811 350.76 741.04 349.205C741.258 347.762 742.082 345.977 743.507 345.733C744.343 345.588 744.685 346.03 745.273 346.484C745.786 346.833 746.356 347.064 746.949 347.163C747.543 347.263 748.148 347.229 748.729 347.064C750.184 346.504 751.031 345.575 752.727 346.069C753.154 346.265 753.617 346.337 754.075 346.28C754.53 346.065 754.934 345.733 755.253 345.311C756.042 344.501 757.249 344 758.161 344.732Z" fill="#70CC40"/>
<path d="M754.835 372.173C750.684 372.245 746.661 370.565 743.566 367.468C741.195 364.99 739.695 361.643 739.339 358.034C739.179 356.478 739.334 354.902 739.792 353.422C740.05 352.495 740.214 351.538 740.281 350.569C740.334 350.082 740.387 349.581 740.463 349.073C740.728 347.275 741.747 345.338 743.407 345.055C743.751 344.999 744.101 345.03 744.433 345.144C744.764 345.257 745.07 345.452 745.326 345.713L745.609 345.937C746.495 346.527 747.551 346.707 748.553 346.438C748.897 346.302 749.235 346.146 749.565 345.97C750.568 345.316 751.758 345.123 752.886 345.43L753.145 345.509C753.397 345.623 753.669 345.669 753.94 345.641C754.185 345.519 754.403 345.337 754.576 345.107L754.847 344.817C755.824 343.842 757.325 343.282 758.491 344.211C758.59 344.287 758.685 344.371 758.773 344.462L758.891 344.574L758.98 344.521C759.736 344.067 760.585 343.84 761.443 343.862C762.302 343.884 763.14 344.154 763.878 344.646C764.33 344.929 764.713 345.331 764.993 345.819C765.273 346.306 765.442 346.862 765.485 347.44C766.01 347.648 766.481 347.997 766.856 348.456C767.232 348.916 767.501 349.472 767.64 350.075C767.891 351.362 767.858 352.698 767.546 353.969L767.457 354.43C767.163 355.945 767.034 356.63 767.893 357.619L768.182 357.942C769.071 358.93 770.077 360.056 769.948 361.855C769.785 363.194 769.278 364.451 768.488 365.472C766.894 367.653 764.84 369.355 762.512 370.427C760.42 371.437 758.186 372.027 755.912 372.173C755.541 372.159 755.188 372.173 754.835 372.173ZM743.807 346.346H743.596C742.512 346.53 741.829 347.993 741.623 349.271C741.553 349.765 741.5 350.24 741.452 350.707C741.377 351.773 741.193 352.825 740.905 353.844C740.505 355.14 740.37 356.52 740.51 357.882C740.842 361.16 742.21 364.198 744.367 366.447C745.92 367.992 747.736 369.171 749.705 369.914C751.675 370.656 753.758 370.947 755.83 370.769C757.968 370.633 760.068 370.077 762.035 369.129C764.181 368.146 766.074 366.581 767.546 364.576C768.195 363.752 768.618 362.737 768.765 361.651C768.865 360.465 768.176 359.674 767.363 358.785L767.069 358.455C765.756 356.96 766.021 355.622 766.321 354.068L766.41 353.613C766.675 352.539 766.711 351.411 766.515 350.319C766.426 349.865 766.217 349.453 765.914 349.135C765.611 348.818 765.23 348.61 764.82 348.54C764.729 348.536 764.641 348.509 764.561 348.461C764.482 348.413 764.413 348.346 764.361 348.263C764.309 348.181 764.274 348.087 764.26 347.987C764.246 347.888 764.252 347.786 764.278 347.69C764.478 346.959 763.913 346.102 763.277 345.674C762.721 345.302 762.089 345.097 761.442 345.077C760.794 345.058 760.153 345.224 759.58 345.562C759.35 345.727 759.082 345.812 758.809 345.806C758.521 345.766 758.254 345.62 758.049 345.391C757.977 345.317 757.9 345.249 757.82 345.186C757.184 344.679 756.271 345.081 755.647 345.7C755.565 345.779 755.488 345.865 755.412 345.951C755.12 346.383 754.706 346.691 754.237 346.823C753.768 346.956 753.273 346.907 752.833 346.682L752.603 346.609C751.567 346.306 750.937 346.609 750.066 347.071C749.718 347.248 749.359 347.426 748.941 347.591C748.275 347.785 747.581 347.827 746.9 347.714C746.219 347.6 745.566 347.335 744.979 346.932L744.655 346.682C744.413 346.47 744.115 346.352 743.807 346.346Z" fill="#093F68"/>
<path d="M757.408 353.922C756.356 355.616 754.746 356.774 752.932 357.139C751.118 357.505 749.248 357.049 747.734 355.873C746.221 354.696 745.187 352.894 744.86 350.864C744.533 348.834 744.94 346.742 745.992 345.048L757.408 353.922Z" fill="#F56132"/>
<path d="M751.691 357.922C750.314 357.921 748.965 357.498 747.788 356.7C746.611 355.901 745.652 354.757 745.015 353.392C744.378 352.026 744.087 350.492 744.174 348.955C744.261 347.418 744.723 345.937 745.509 344.672C745.598 344.53 745.733 344.433 745.886 344.402C745.962 344.386 746.04 344.388 746.116 344.406C746.192 344.424 746.264 344.458 746.327 344.508L757.743 353.382C757.871 353.482 757.958 353.634 757.986 353.806C758.013 353.978 757.979 354.155 757.89 354.298C757.196 355.419 756.27 356.334 755.19 356.965C754.11 357.596 752.909 357.925 751.691 357.922ZM746.162 345.983C745.39 347.527 745.159 349.338 745.515 351.062C745.87 352.786 746.786 354.3 748.084 355.31C749.383 356.32 750.97 356.752 752.538 356.524C754.106 356.296 755.542 355.422 756.566 354.074L746.162 345.983Z" fill="#093F68"/>
<path d="M750.313 355.8C751.011 355.733 751.69 355.509 752.309 355.141C753.051 354.581 753.316 353.527 753.587 352.572C753.839 351.49 754.322 350.493 754.994 349.666C755.337 349.26 755.779 348.973 756.265 348.842C756.751 348.711 757.26 348.741 757.731 348.928C758.032 349.073 758.32 349.311 758.609 349.442C759.963 350.022 761.223 348.639 762.477 348.322C762.807 348.201 763.161 348.188 763.498 348.283C763.834 348.379 764.14 348.58 764.378 348.863C764.861 349.475 764.867 350.398 765.738 350.576C766.331 350.618 766.925 350.567 767.505 350.424C769.447 350.233 771.579 351.834 773.245 352.737C773.374 352.82 773.52 352.868 773.669 352.875C773.904 352.875 774.093 352.651 774.258 352.486C774.727 352.125 775.29 351.947 775.859 351.979C776.429 352.011 776.973 352.252 777.407 352.664C777.838 353.092 778.177 353.622 778.4 354.216C778.624 354.811 778.725 355.453 778.697 356.097C778.631 357.372 778.316 358.616 777.772 359.74C777.091 361.444 775.993 362.896 774.605 363.93C773.074 364.971 771.284 365.162 769.595 365.676C767.717 366.25 766.78 367.277 765.244 368.424C762.8 370.262 759.857 371.283 756.913 370.743C755.536 370.473 754.217 369.912 753.027 369.089C751.576 368.14 750.377 366.776 749.554 365.136C748.476 362.883 746.904 356.525 750.313 355.8Z" fill="#70CC40"/>
<path d="M758.485 371.54C757.929 371.543 757.373 371.492 756.825 371.389C755.373 371.11 753.984 370.519 752.733 369.649C751.194 368.648 749.922 367.206 749.047 365.472C748.282 363.878 746.981 359.542 748.07 356.966C748.266 356.492 748.563 356.078 748.934 355.761C749.306 355.444 749.741 355.234 750.201 355.148L750.666 355.062C751.127 355.025 751.575 354.876 751.979 354.627C752.509 354.226 752.751 353.376 752.986 352.552L753.027 352.407C753.307 351.219 753.843 350.127 754.587 349.225C755.014 348.727 755.561 348.38 756.161 348.225C756.762 348.071 757.389 348.116 757.967 348.355C758.125 348.437 758.278 348.529 758.426 348.632C758.551 348.717 758.681 348.792 758.815 348.856C759.462 349.133 760.139 348.77 760.917 348.349C761.368 348.066 761.849 347.845 762.347 347.69C762.779 347.535 763.241 347.523 763.679 347.655C764.116 347.787 764.51 348.058 764.814 348.434C765.005 348.685 765.163 348.965 765.285 349.264C765.503 349.752 765.591 349.884 765.874 349.923C766.205 349.962 766.539 349.94 766.863 349.857C767.063 349.818 767.263 349.785 767.452 349.765C769.183 349.587 770.925 350.628 772.468 351.537C772.827 351.755 773.174 351.959 773.504 352.137C773.553 352.166 773.604 352.19 773.657 352.209L773.81 352.058L773.916 351.966C774.489 351.508 775.183 351.277 775.886 351.309C776.59 351.341 777.264 351.635 777.802 352.144C778.297 352.637 778.688 353.248 778.946 353.932C779.204 354.616 779.322 355.355 779.291 356.097C779.233 357.48 778.897 358.831 778.308 360.05C777.58 361.867 776.404 363.415 774.917 364.51C773.741 365.222 772.468 365.71 771.149 365.953C770.684 366.072 770.213 366.184 769.754 366.329C768.594 366.714 767.513 367.352 766.574 368.206C766.262 368.457 765.933 368.72 765.574 368.984C763.487 370.599 761.021 371.488 758.485 371.54ZM756.913 349.429C756.343 349.457 755.804 349.723 755.4 350.174C754.8 350.929 754.368 351.832 754.14 352.809L754.105 352.954C753.822 353.936 753.516 355.056 752.639 355.721C752.091 356.087 751.478 356.312 750.843 356.38C750.702 356.38 750.555 356.426 750.419 356.459C750.139 356.506 749.873 356.63 749.647 356.821C749.421 357.012 749.241 357.264 749.124 357.553C748.353 359.358 749.2 363.021 750.078 364.866C750.857 366.391 751.982 367.659 753.339 368.542C754.463 369.322 755.71 369.852 757.013 370.104C759.551 370.578 762.353 369.788 764.902 367.89C765.25 367.633 765.568 367.376 765.874 367.132C766.921 366.192 768.12 365.488 769.406 365.057C769.889 364.912 770.372 364.787 770.86 364.668C772.055 364.441 773.209 363.996 774.275 363.351C775.569 362.383 776.59 361.024 777.219 359.43C777.728 358.397 778.024 357.249 778.084 356.07C778.109 355.532 778.027 354.994 777.843 354.495C777.66 353.996 777.381 353.548 777.025 353.185C776.694 352.864 776.279 352.675 775.843 352.645C775.406 352.615 774.973 352.747 774.611 353.02L774.575 353.132C774.338 353.39 774.028 353.551 773.698 353.586C773.455 353.586 773.216 353.516 773.004 353.382C772.662 353.198 772.303 352.987 771.926 352.763C770.531 351.939 768.947 350.997 767.569 351.136C767.396 351.152 767.223 351.179 767.051 351.215C766.594 351.331 766.12 351.351 765.656 351.274C765.338 351.199 765.042 351.034 764.798 350.794C764.553 350.554 764.368 350.247 764.261 349.904C764.183 349.707 764.082 349.523 763.96 349.357C763.797 349.153 763.581 349.011 763.343 348.951C763.105 348.891 762.855 348.915 762.63 349.021C762.221 349.149 761.826 349.328 761.452 349.554C760.557 350.042 759.545 350.589 758.42 350.108C758.216 350.02 758.019 349.912 757.831 349.785C757.72 349.712 757.608 349.64 757.496 349.581C757.313 349.485 757.115 349.433 756.913 349.429Z" fill="#093F68"/>
<path d="M730.225 349.785C731.403 349.851 732.774 350.305 733.593 349.363C733.894 348.92 734.13 348.426 734.293 347.901C734.574 347.345 734.96 346.865 735.424 346.493C735.887 346.121 736.418 345.867 736.978 345.748C737.538 345.629 738.115 345.648 738.668 345.803C739.221 345.959 739.737 346.247 740.181 346.649C741.099 347.584 741.729 349.106 742.966 349.284C743.884 349.409 744.732 348.685 745.633 348.494C747.44 348.105 749.236 350.371 748.676 352.335C748.435 353.185 747.852 354.002 748.088 354.858C748.412 356.176 750.048 356.11 751.084 356.782C752.751 357.876 752.55 360.682 751.673 362.619C749.754 366.968 745.697 369.867 741.423 370.644C735.435 371.725 730.031 369.01 724.72 366.282C722.933 365.471 721.384 364.118 720.246 362.375C719.634 361.419 719.341 360.254 719.416 359.081C719.466 358.503 719.666 357.954 719.991 357.501C720.316 357.048 720.753 356.711 721.247 356.531C721.835 356.36 722.501 356.485 723.095 356.281C723.49 356.14 723.836 355.867 724.087 355.498C724.338 355.129 724.481 354.682 724.497 354.219C724.497 353.883 724.444 353.56 724.461 353.217C724.626 350.852 728.547 349.693 730.225 349.785Z" fill="#70CC40"/>
<path d="M738.715 371.534C733.54 371.534 728.765 369.083 724.473 366.876C722.271 365.749 720.729 364.392 719.763 362.731C719.079 361.65 718.754 360.336 718.845 359.015C718.906 358.304 719.154 357.629 719.557 357.074C719.961 356.52 720.501 356.111 721.111 355.899C721.442 355.815 721.779 355.771 722.118 355.767C722.395 355.769 722.672 355.733 722.942 355.662C723.217 355.559 723.458 355.366 723.632 355.107C723.807 354.848 723.907 354.536 723.92 354.212C723.928 354.087 723.928 353.962 723.92 353.837C723.905 353.618 723.905 353.397 723.92 353.178C724.114 350.286 728.465 349.034 730.296 349.133C730.555 349.133 730.831 349.179 731.108 349.212C731.962 349.324 732.768 349.423 733.21 348.909C733.388 348.66 733.528 348.379 733.622 348.079C733.681 347.92 733.74 347.769 733.811 347.617C734.131 346.97 734.575 346.409 735.112 345.975C735.648 345.541 736.263 345.244 736.913 345.106C737.563 344.967 738.232 344.991 738.873 345.174C739.514 345.358 740.112 345.697 740.622 346.168C740.927 346.496 741.212 346.846 741.476 347.216C742 347.927 742.459 348.533 743.077 348.632C743.545 348.63 744.005 348.504 744.42 348.263C744.788 348.082 745.17 347.941 745.562 347.841C746.109 347.766 746.665 347.84 747.181 348.058C747.697 348.276 748.158 348.631 748.524 349.093C748.89 349.554 749.15 350.109 749.283 350.708C749.415 351.307 749.415 351.933 749.283 352.532C749.193 352.82 749.089 353.101 748.971 353.376C748.744 353.766 748.638 354.229 748.671 354.693C748.788 355.168 749.259 355.352 750.084 355.642C750.539 355.783 750.979 355.98 751.396 356.229C753.316 357.48 753.263 360.616 752.244 362.929C750.337 367.251 746.239 370.46 741.558 371.303C740.618 371.466 739.667 371.544 738.715 371.534ZM730.007 350.45C728.306 350.45 725.168 351.59 725.05 353.29C725.042 353.439 725.042 353.589 725.05 353.738C725.059 353.909 725.059 354.081 725.05 354.252C725.032 354.855 724.848 355.436 724.522 355.917C724.196 356.397 723.745 356.752 723.231 356.934C722.886 357.032 722.532 357.083 722.177 357.085C721.92 357.087 721.663 357.118 721.411 357.177C721.035 357.322 720.703 357.586 720.457 357.936C720.21 358.287 720.059 358.71 720.022 359.154C719.965 360.166 720.223 361.17 720.752 361.993C721.606 363.443 722.989 364.629 724.979 365.663C730.125 368.299 735.441 371.039 741.347 369.972C745.662 369.195 749.418 366.256 751.161 362.31C751.838 360.788 752.162 358.231 750.778 357.329C750.438 357.134 750.081 356.979 749.713 356.868C748.865 356.578 747.817 356.209 747.517 355.016C747.39 354.254 747.518 353.466 747.876 352.803C747.974 352.578 748.06 352.347 748.135 352.111C748.205 351.732 748.196 351.34 748.108 350.966C748.02 350.592 747.855 350.246 747.626 349.956C747.397 349.666 747.112 349.439 746.791 349.294C746.471 349.149 746.124 349.089 745.78 349.12C745.461 349.198 745.151 349.315 744.855 349.469C744.257 349.803 743.592 349.957 742.924 349.917C741.847 349.765 741.158 348.849 740.569 348.039C740.34 347.716 740.092 347.41 739.828 347.123C739.451 346.792 739.016 346.555 738.551 346.428C738.086 346.301 737.602 346.287 737.132 346.387C736.661 346.486 736.216 346.698 735.825 347.007C735.433 347.316 735.106 347.715 734.864 348.177L734.705 348.573C734.551 349.042 734.315 349.472 734.011 349.838C733.169 350.806 731.985 350.661 730.937 350.53C730.684 350.53 730.437 350.47 730.196 350.457H730.007V350.45Z" fill="#093F68"/>
<path d="M733.104 367.771C736.502 367.771 739.256 364.689 739.256 360.887C739.256 357.084 736.502 354.002 733.104 354.002C729.706 354.002 726.952 357.084 726.952 360.887C726.952 364.689 729.706 367.771 733.104 367.771Z" fill="#F56132"/>
<path d="M733.104 368.43C731.771 368.432 730.467 367.99 729.357 367.162C728.248 366.334 727.383 365.156 726.872 363.778C726.361 362.4 726.226 360.883 726.486 359.419C726.745 357.955 727.387 356.61 728.329 355.555C729.272 354.499 730.473 353.78 731.781 353.488C733.089 353.196 734.444 353.345 735.677 353.916C736.909 354.487 737.962 355.454 738.703 356.695C739.444 357.935 739.839 359.394 739.839 360.886C739.838 362.886 739.128 364.802 737.865 366.216C736.603 367.631 734.89 368.427 733.104 368.43ZM733.104 354.66C732.004 354.662 730.929 355.028 730.015 355.713C729.1 356.398 728.388 357.371 727.968 358.508C727.548 359.646 727.439 360.898 727.654 362.105C727.869 363.312 728.4 364.421 729.178 365.291C729.956 366.161 730.948 366.754 732.027 366.993C733.106 367.233 734.224 367.109 735.24 366.638C736.257 366.167 737.125 365.369 737.736 364.345C738.347 363.321 738.674 362.118 738.674 360.886C738.672 359.235 738.085 357.651 737.04 356.484C735.996 355.316 734.58 354.66 733.104 354.66Z" fill="#093F68"/>
<path d="M733.104 364.741C735.006 364.741 736.548 363.015 736.548 360.886C736.548 358.758 735.006 357.032 733.104 357.032C731.202 357.032 729.66 358.758 729.66 360.886C729.66 363.015 731.202 364.741 733.104 364.741Z" fill="#F56132"/>
<path d="M733.104 365.4C732.819 365.4 732.534 365.365 732.256 365.294C731.61 365.136 731.008 364.803 730.504 364.323C730.001 363.843 729.61 363.232 729.368 362.543C729.125 361.854 729.038 361.109 729.114 360.373C729.19 359.638 729.427 358.935 729.804 358.326C730.18 357.717 730.685 357.222 731.274 356.883C731.862 356.545 732.516 356.374 733.177 356.385C733.839 356.397 734.487 356.59 735.066 356.949C735.645 357.308 736.136 357.821 736.495 358.442C736.888 359.124 737.109 359.911 737.135 360.722C737.162 361.532 736.993 362.336 736.646 363.048C736.298 363.76 735.786 364.354 735.163 364.768C734.54 365.181 733.829 365.4 733.104 365.4ZM733.104 357.691C732.558 357.69 732.023 357.868 731.567 358.205C731.014 358.606 730.603 359.209 730.402 359.912C730.202 360.615 730.226 361.373 730.469 362.059C730.712 362.744 731.161 363.314 731.737 363.671C732.314 364.028 732.983 364.151 733.632 364.017C734.28 363.884 734.867 363.504 735.292 362.941C735.718 362.378 735.956 361.667 735.966 360.929C735.976 360.192 735.758 359.473 735.347 358.896C734.937 358.319 734.361 357.919 733.716 357.764C733.513 357.716 733.306 357.692 733.098 357.691H733.104Z" fill="#093F68"/>
<path d="M767.593 364.332C765.627 368.358 761.617 370.143 758.638 368.318C755.659 366.493 754.823 361.763 756.784 357.737C758.744 353.712 763.684 350.022 766.669 351.841C769.654 353.659 769.553 360.274 767.593 364.332Z" fill="white"/>
<path d="M761.164 369.656C760.183 369.663 759.216 369.391 758.355 368.865C755.088 366.889 754.152 361.723 756.265 357.388C758.379 353.053 763.672 349.231 766.945 351.228C770.219 353.224 770.266 360.188 768.123 364.616C766.563 367.785 763.807 369.656 761.164 369.656ZM764.896 351.992C762.282 351.992 758.832 354.871 757.302 358.02C755.5 361.717 756.224 366.065 758.915 367.712C761.605 369.359 765.267 367.712 767.075 363.983C768.882 360.254 768.971 353.969 766.386 352.387C765.927 352.118 765.415 351.982 764.896 351.992Z" fill="#093F68"/>
<path d="M761.841 366.394C764.149 366.394 766.021 364.3 766.021 361.717C766.021 359.133 764.149 357.039 761.841 357.039C759.532 357.039 757.661 359.133 757.661 361.717C757.661 364.3 759.532 366.394 761.841 366.394Z" fill="#FFBC0E"/>
<path d="M761.829 367.053C761.001 367.053 760.186 366.812 759.466 366.353C758.747 365.893 758.146 365.232 757.724 364.434C757.302 363.636 757.074 362.729 757.06 361.802C757.047 360.875 757.25 359.96 757.649 359.147C758.054 358.322 758.647 357.631 759.368 357.145C760.089 356.659 760.911 356.396 761.753 356.381C762.594 356.366 763.424 356.6 764.158 357.06C764.892 357.52 765.504 358.189 765.933 358.999C766.361 359.809 766.591 360.732 766.597 361.674C766.604 362.615 766.388 363.542 765.971 364.36C765.555 365.178 764.952 365.858 764.224 366.331C763.497 366.804 762.67 367.053 761.829 367.053ZM761.829 357.691C761.27 357.69 760.718 357.835 760.218 358.115C759.717 358.395 759.282 358.801 758.947 359.302C758.611 359.803 758.385 360.384 758.285 361C758.186 361.616 758.216 362.249 758.373 362.85C758.504 363.358 758.724 363.831 759.02 364.243C759.317 364.654 759.683 364.996 760.098 365.248C760.932 365.715 761.894 365.801 762.784 365.49C763.673 365.178 764.42 364.492 764.866 363.577C765.312 362.661 765.424 361.587 765.177 360.582C764.93 359.576 764.344 358.717 763.542 358.185C763.023 357.864 762.44 357.694 761.847 357.691H761.829Z" fill="#093F68"/>
<path d="M723.831 360.168C725.052 366.587 728.204 372.343 732.762 376.473C737.32 380.604 743.006 382.858 748.871 382.859C754.735 382.858 760.422 380.604 764.98 376.473C769.537 372.343 772.69 366.587 773.91 360.168H723.831Z" fill="#68E1FD"/>
<path d="M748.871 383.518C742.875 383.496 737.066 381.182 732.407 376.959C727.748 372.736 724.519 366.859 723.254 360.3C723.237 360.203 723.239 360.103 723.26 360.007C723.282 359.912 723.322 359.822 723.379 359.746C723.435 359.671 723.506 359.61 723.587 359.569C723.667 359.528 723.755 359.508 723.843 359.51H773.922C774.01 359.508 774.098 359.528 774.178 359.569C774.259 359.61 774.33 359.671 774.386 359.746C774.443 359.822 774.483 359.912 774.505 360.007C774.526 360.103 774.528 360.203 774.511 360.3C773.246 366.864 770.014 372.745 765.349 376.969C760.685 381.192 754.871 383.503 748.871 383.518ZM724.567 360.827C725.89 366.924 729.006 372.346 733.413 376.224C737.82 380.102 743.264 382.21 748.871 382.21C754.477 382.21 759.921 380.102 764.328 376.224C768.736 372.346 771.851 366.924 773.174 360.827H724.567Z" fill="#093F68"/>
<path d="M717.467 360.168C720.54 373.128 733.44 382.859 748.894 382.859C764.349 382.859 777.248 373.128 780.322 360.168H717.467Z" fill="white"/>
<path d="M748.871 383.518C733.516 383.518 720.057 373.767 716.872 360.333C716.85 360.236 716.848 360.134 716.867 360.036C716.885 359.938 716.923 359.846 716.978 359.766C717.033 359.687 717.103 359.622 717.184 359.577C717.265 359.533 717.353 359.51 717.443 359.509H780.298C780.389 359.509 780.479 359.531 780.561 359.576C780.642 359.621 780.714 359.686 780.769 359.766C780.823 359.846 780.86 359.939 780.878 360.037C780.895 360.135 780.892 360.236 780.869 360.333C777.684 373.767 764.225 383.518 748.871 383.518ZM718.22 360.827C721.623 373.26 734.358 382.2 748.871 382.2C763.383 382.2 776.118 373.26 779.521 360.827H718.22Z" fill="#093F68"/>
<path d="M732.486 378.992H765.256V383.32H732.486V378.992Z" fill="white"/>
<path d="M765.256 383.979H732.486C732.33 383.979 732.18 383.91 732.07 383.786C731.959 383.663 731.897 383.495 731.897 383.32V378.992C731.897 378.817 731.959 378.649 732.07 378.526C732.18 378.402 732.33 378.333 732.486 378.333H765.256C765.412 378.333 765.561 378.402 765.672 378.526C765.782 378.649 765.844 378.817 765.844 378.992V383.32C765.844 383.495 765.782 383.663 765.672 383.786C765.561 383.91 765.412 383.979 765.256 383.979ZM733.075 382.661H764.667V379.65H733.075V382.661Z" fill="#093F68"/>
<path d="M756.913 260.109C751.396 259.194 745.68 259.721 740.575 262.33C738.191 263.548 737.043 265.894 734.929 267.567C732.774 269.285 730.243 270.317 727.605 270.552C725.65 270.717 723.484 270.341 722.147 268.747C722.129 271.547 722.938 274.275 724.449 276.507C725.96 278.739 728.088 280.349 730.502 281.087C727.817 281.996 725.021 280.362 722.618 278.748C722.26 280.076 722.153 281.472 722.305 282.848C722.457 284.225 722.865 285.55 723.502 286.74C724.414 288.42 725.774 289.797 726.445 291.615C727.034 293.21 725.809 304.535 727.841 304.608L729.966 304.674L756.872 305.557L771.19 306.031C773.115 306.09 774.47 306.802 775.818 304.931C776.995 303.33 777.101 302.361 778.968 301.175C781.566 299.52 783.686 297.067 785.079 294.106C783.369 294.198 781.671 293.741 780.186 292.788C781.395 292.978 782.627 292.876 783.798 292.488C784.969 292.101 786.052 291.437 786.975 290.541C785.925 290.658 784.87 290.402 783.957 289.811C783.044 289.22 782.32 288.323 781.888 287.247C781.152 285.271 781.493 283.064 781.611 280.942C781.723 278.966 781.487 276.449 780.139 274.927C779.756 274.499 775.429 272.456 775.553 274.097C775.394 271.876 773.704 269.959 772.321 268.45C771.134 267.164 769.846 266.002 768.47 264.978C765.788 262.99 762.815 261.545 759.686 260.709C758.787 260.467 757.863 260.267 756.913 260.109Z" fill="#725858"/>
<path d="M773.463 306.874C773.069 306.866 772.676 306.836 772.285 306.782C771.92 306.742 771.543 306.703 771.149 306.69L727.799 305.267C726.033 305.207 725.939 301.544 725.998 295.97C725.998 294.251 726.039 292.3 725.88 291.859C725.454 290.84 724.905 289.891 724.249 289.039C723.797 288.409 723.378 287.749 722.995 287.063C722.31 285.789 721.872 284.368 721.709 282.893C721.546 281.417 721.661 279.92 722.047 278.498C722.074 278.402 722.119 278.314 722.18 278.241C722.242 278.168 722.317 278.112 722.401 278.076C722.484 278.041 722.573 278.027 722.662 278.036C722.751 278.046 722.837 278.077 722.913 278.129C724.382 279.22 726.007 280.024 727.717 280.507C725.834 279.33 724.268 277.609 723.183 275.522C722.099 273.436 721.536 271.062 721.553 268.648C721.557 268.518 721.596 268.392 721.664 268.286C721.732 268.181 721.826 268.1 721.935 268.055C722.044 268.009 722.163 268 722.276 268.03C722.389 268.059 722.492 268.125 722.571 268.22C723.961 269.86 726.292 269.926 727.558 269.821C730.089 269.597 732.519 268.609 734.588 266.961C735.373 266.328 736.107 265.62 736.784 264.846C737.777 263.576 738.975 262.528 740.316 261.756C745.185 259.266 750.949 258.462 756.978 259.483C757.937 259.641 758.885 259.846 759.804 260.089C763.001 260.939 766.039 262.415 768.776 264.451C770.185 265.495 771.504 266.684 772.715 268.002C773.792 269.175 775.335 270.855 775.906 272.864C777.337 272.608 780.139 274.037 780.534 274.479C782.1 276.238 782.3 278.998 782.182 281.008C782.182 281.37 782.135 281.733 782.111 282.095C781.982 283.861 781.858 285.534 782.412 287.01C782.789 287.961 783.424 288.755 784.227 289.279C785.03 289.803 785.961 290.03 786.886 289.929C787.012 289.91 787.139 289.938 787.25 290.008C787.36 290.077 787.448 290.184 787.499 290.314C787.551 290.443 787.564 290.588 787.536 290.726C787.508 290.865 787.441 290.989 787.345 291.082C786.169 292.225 784.75 293.012 783.224 293.368C783.808 293.473 784.4 293.508 784.99 293.473C785.095 293.467 785.199 293.491 785.292 293.544C785.385 293.598 785.464 293.678 785.52 293.776C785.572 293.876 785.599 293.99 785.599 294.106C785.599 294.221 785.572 294.335 785.52 294.435C784.085 297.486 781.907 300.019 779.238 301.742C778.345 302.275 777.601 303.076 777.089 304.054C776.86 304.43 776.607 304.858 776.259 305.372C775.939 305.86 775.516 306.251 775.028 306.513C774.541 306.775 774.003 306.899 773.463 306.874ZM722.989 279.756C722.576 282.034 722.937 284.402 724.002 286.397C724.364 287.031 724.757 287.643 725.179 288.229C725.896 289.177 726.49 290.233 726.946 291.365C727.181 292.024 727.175 293.473 727.152 295.977C727.152 298.059 727.075 303.58 727.817 303.942L771.161 305.365C771.596 305.365 771.997 305.425 772.379 305.464C773.675 305.609 774.458 305.701 775.323 304.509C775.641 304.074 775.871 303.692 776.1 303.316C776.71 302.167 777.59 301.226 778.644 300.595C780.85 299.185 782.703 297.175 784.031 294.751C782.563 294.653 781.135 294.18 779.857 293.368C779.741 293.29 779.652 293.17 779.606 293.028C779.559 292.886 779.558 292.73 779.603 292.587C779.647 292.444 779.734 292.323 779.848 292.243C779.963 292.163 780.099 292.13 780.233 292.149C781.967 292.427 783.735 292.056 785.261 291.095C784.399 290.88 783.595 290.443 782.911 289.817C782.228 289.191 781.686 288.394 781.328 287.491C780.663 285.712 780.799 283.801 780.934 281.957C780.961 281.601 780.985 281.245 781.005 280.889C781.087 279.466 781.005 276.864 779.703 275.381C779.25 274.979 776.76 273.938 776.118 274.116C776.109 274.274 776.049 274.423 775.949 274.536C775.85 274.648 775.717 274.717 775.576 274.729C775.422 274.742 775.269 274.686 775.151 274.574C775.034 274.462 774.96 274.302 774.946 274.129C774.805 272.087 773.051 270.176 771.891 268.911C770.732 267.651 769.471 266.515 768.123 265.518C765.503 263.568 762.595 262.154 759.533 261.341C758.65 261.104 757.731 260.906 756.807 260.755C751.002 259.786 745.468 260.537 740.805 262.922C739.589 263.626 738.504 264.583 737.608 265.742C736.887 266.605 736.099 267.394 735.253 268.101C733.012 269.89 730.379 270.963 727.635 271.204C725.95 271.41 724.25 271.031 722.766 270.117C723.005 272.518 723.883 274.783 725.285 276.62C726.687 278.457 728.55 279.781 730.631 280.421C730.757 280.456 730.869 280.535 730.95 280.648C731.032 280.76 731.078 280.9 731.081 281.045C731.084 281.189 731.045 281.331 730.969 281.448C730.893 281.566 730.785 281.652 730.661 281.693C728.005 282.635 725.338 281.278 722.989 279.756Z" fill="#093F68"/>
<path d="M754.105 322.568L754.452 319.359L748.612 318.575L748.27 321.784C748.029 324.044 749.112 326.047 750.696 326.257H750.802C752.386 326.481 753.863 324.801 754.105 322.568Z" fill="#FFC9B0"/>
<path d="M751.073 326.949H750.731H750.631C748.724 326.692 747.405 324.353 747.687 321.738L748.035 318.529C748.054 318.356 748.133 318.199 748.256 318.092C748.378 317.984 748.534 317.936 748.688 317.956L754.529 318.74C754.683 318.761 754.824 318.85 754.92 318.987C755.015 319.124 755.059 319.298 755.041 319.471L754.699 322.68C754.429 325.104 752.845 326.949 751.073 326.949ZM749.124 319.307L748.853 321.863C748.647 323.76 749.507 325.434 750.766 325.605H750.872C752.132 325.77 753.322 324.367 753.522 322.476L753.799 319.919L749.124 319.307Z" fill="#093F68"/>
<path d="M781.382 301.918C781.523 298.042 778.38 294.752 774.361 294.568C770.342 294.384 766.97 297.377 766.828 301.253C766.687 305.128 769.83 308.419 773.849 308.603C777.867 308.787 781.24 305.794 781.382 301.918Z" fill="#FFC9B0"/>
<path d="M774.216 309.272H773.834C771.813 309.202 769.881 308.326 768.388 306.802C767.69 306.105 767.137 305.245 766.768 304.283C766.398 303.321 766.222 302.281 766.251 301.234C766.299 300.189 766.552 299.167 766.99 298.242C767.428 297.317 768.042 296.51 768.788 295.878C770.398 294.517 772.381 293.823 774.398 293.915C776.414 294.008 778.339 294.881 779.845 296.385C780.55 297.076 781.107 297.935 781.477 298.898C781.847 299.861 782.019 300.905 781.981 301.953C781.943 303 781.696 304.025 781.258 304.952C780.82 305.879 780.203 306.684 779.45 307.309C777.953 308.604 776.109 309.295 774.216 309.272ZM774.022 295.219C772.394 295.197 770.807 295.792 769.518 296.906C768.905 297.42 768.4 298.077 768.039 298.833C767.678 299.589 767.469 300.425 767.428 301.281C767.407 302.138 767.555 302.99 767.86 303.776C768.165 304.563 768.621 305.265 769.194 305.833C770.494 307.122 772.151 307.869 773.885 307.948C775.62 308.027 777.326 307.434 778.714 306.268C779.335 305.762 779.845 305.106 780.207 304.348C780.569 303.591 780.773 302.752 780.805 301.893C780.836 301.035 780.695 300.18 780.39 299.392C780.085 298.603 779.625 297.902 779.044 297.341C777.75 296.029 776.079 295.278 774.334 295.226L774.022 295.219Z" fill="#093F68"/>
<path d="M738.962 299.974C739.104 296.099 735.961 292.808 731.942 292.624C727.923 292.44 724.55 295.433 724.409 299.309C724.267 303.185 727.411 306.475 731.429 306.659C735.448 306.843 738.821 303.85 738.962 299.974Z" fill="#FFC9B0"/>
<path d="M731.785 307.329H731.408C727.075 307.131 723.672 303.521 723.825 299.291C723.978 295.061 727.623 291.78 731.974 291.978C736.324 292.175 739.71 295.779 739.557 300.009C739.404 304.114 735.954 307.329 731.785 307.329ZM725.003 299.337C724.873 302.842 727.77 305.833 731.479 306.004C735.188 306.176 738.273 303.455 738.403 299.95C738.532 296.445 735.636 293.453 731.927 293.282C728.217 293.111 725.121 295.812 725.003 299.337Z" fill="#093F68"/>
<path d="M751.873 323.484C754.756 323.616 757.633 323.112 760.341 322C763.05 320.888 765.536 319.19 767.657 317.003C769.779 314.816 771.495 312.182 772.707 309.253C773.92 306.323 774.604 303.155 774.723 299.93L775.046 291.003C775.276 284.809 773.516 280.421 768.835 279.973C766.577 279.751 764.329 280.506 762.553 282.082C760.159 284.255 757.432 285.925 754.505 287.01C751.559 288.084 748.384 288.084 745.438 287.01C746.406 286.657 747.289 286.064 748.023 285.274C748.756 284.484 749.319 283.519 749.671 282.451C747.905 283.986 745.55 284.328 743.342 284.269C741.135 284.21 738.891 283.801 736.684 284.071C735.159 284.263 732.733 284.935 731.838 286.509C731.185 287.669 731.485 289.217 731.391 290.574C731.226 293.012 731.014 295.45 730.802 297.894C730.681 301.124 731.13 304.348 732.123 307.383C733.117 310.418 734.636 313.204 736.593 315.581C738.551 317.958 740.908 319.88 743.53 321.236C746.152 322.592 748.987 323.356 751.873 323.484Z" fill="#FFC9B0"/>
<path d="M752.792 324.143C752.48 324.143 752.168 324.143 751.85 324.143C748.89 324.008 745.984 323.222 743.296 321.83C740.608 320.437 738.191 318.466 736.184 316.029C734.177 313.591 732.619 310.735 731.598 307.624C730.578 304.512 730.115 301.206 730.237 297.894C730.302 297.038 730.366 296.207 730.431 295.384C730.567 293.77 730.69 292.162 730.802 290.548C730.802 290.186 730.802 289.803 730.802 289.395C730.694 288.291 730.879 287.175 731.332 286.186C732.509 284.098 735.665 283.551 736.631 283.446C738.132 283.308 739.642 283.326 741.14 283.498C741.871 283.558 742.63 283.617 743.366 283.637C746.004 283.716 747.952 283.162 749.318 281.963C749.418 281.875 749.542 281.826 749.669 281.823C749.796 281.82 749.921 281.863 750.025 281.946C750.128 282.03 750.205 282.148 750.243 282.284C750.281 282.42 750.279 282.567 750.237 282.701C749.661 284.443 748.576 285.915 747.157 286.878C749.553 287.382 752.023 287.212 754.346 286.384C757.209 285.324 759.874 283.687 762.212 281.555C764.101 279.891 766.488 279.099 768.882 279.341C772.15 279.651 775.947 281.976 775.635 291.055L775.311 299.983C775.061 306.48 772.58 312.619 768.385 317.12C764.189 321.621 758.604 324.137 752.792 324.143ZM751.897 322.825C754.702 322.954 757.502 322.463 760.138 321.381C762.773 320.299 765.193 318.647 767.258 316.518C769.322 314.39 770.993 311.827 772.172 308.976C773.352 306.126 774.019 303.043 774.134 299.904L774.458 290.976C774.693 284.493 772.786 281.014 768.782 280.626C766.666 280.419 764.56 281.127 762.895 282.602C760.445 284.832 757.652 286.54 754.652 287.642C751.59 288.751 748.294 288.751 745.232 287.642C745.111 287.595 745.008 287.506 744.937 287.387C744.865 287.268 744.831 287.126 744.838 286.984C744.84 286.845 744.88 286.711 744.954 286.599C745.028 286.488 745.132 286.406 745.25 286.364C746.38 285.955 747.378 285.186 748.123 284.151C746.579 284.753 744.945 285.013 743.313 284.915C742.548 284.915 741.782 284.829 741.034 284.77C739.606 284.605 738.168 284.587 736.737 284.717C735.147 284.908 733.045 285.587 732.327 286.852C732.006 287.625 731.886 288.483 731.98 289.329V290.607C731.868 292.228 731.738 293.842 731.609 295.463C731.538 296.287 731.473 297.11 731.408 297.934C731.292 301.074 731.729 304.209 732.696 307.16C733.662 310.111 735.139 312.82 737.042 315.132C738.945 317.443 741.236 319.313 743.785 320.633C746.334 321.953 749.091 322.698 751.897 322.825Z" fill="#093F68"/>
<path d="M762.995 299.838C764.058 299.838 764.92 298.873 764.92 297.683C764.92 296.493 764.058 295.529 762.995 295.529C761.932 295.529 761.07 296.493 761.07 297.683C761.07 298.873 761.932 299.838 762.995 299.838Z" fill="#093F68"/>
<path d="M741.688 297.762C742.751 297.762 743.613 296.798 743.613 295.608C743.613 294.418 742.751 293.453 741.688 293.453C740.625 293.453 739.763 294.418 739.763 295.608C739.763 296.798 740.625 297.762 741.688 297.762Z" fill="#093F68"/>
<path d="M753.057 305.155C752.388 305.168 751.72 305.079 751.073 304.891C750.926 304.843 750.791 304.759 750.677 304.645C750.563 304.531 750.473 304.39 750.413 304.232C749.895 302.796 751.703 299.093 752.268 297.993C752.346 297.841 752.475 297.73 752.626 297.684C752.777 297.638 752.939 297.662 753.074 297.749C753.21 297.837 753.309 297.981 753.35 298.15C753.391 298.319 753.37 298.5 753.292 298.652C752.197 300.78 751.379 303.066 751.485 303.672C752.428 303.876 753.393 303.911 754.346 303.778C754.502 303.754 754.66 303.801 754.786 303.908C754.911 304.015 754.993 304.173 755.014 304.348C755.035 304.522 754.994 304.699 754.898 304.839C754.803 304.98 754.661 305.072 754.505 305.095C754.024 305.148 753.54 305.168 753.057 305.155Z" fill="#093F68"/>
<path d="M759.433 292.053C759.185 292.053 758.946 291.942 758.771 291.746C758.595 291.549 758.497 291.282 758.497 291.004C758.497 290.726 758.595 290.459 758.771 290.262C758.946 290.066 759.185 289.955 759.433 289.955L768.352 289.79C768.601 289.785 768.841 289.891 769.019 290.084C769.198 290.277 769.301 290.541 769.306 290.819C769.311 291.097 769.217 291.366 769.044 291.567C768.872 291.767 768.636 291.883 768.388 291.888L759.462 292.053H759.433Z" fill="#093F68"/>
<path d="M744.591 308.021L759.186 308.574C759.186 308.574 757.784 317.745 750.578 317.231C743.272 316.717 744.591 308.021 744.591 308.021Z" fill="white"/>
<path d="M751.155 317.91H750.566C748.329 317.752 746.616 316.856 745.474 315.275C743.401 312.343 744.008 308.139 744.031 307.961C744.055 307.807 744.127 307.667 744.235 307.566C744.343 307.466 744.48 307.412 744.62 307.414L759.221 307.968C759.305 307.971 759.387 307.995 759.462 308.037C759.537 308.079 759.604 308.139 759.657 308.212C759.71 308.285 759.748 308.369 759.769 308.46C759.791 308.551 759.794 308.646 759.78 308.739C759.751 308.778 758.267 317.91 751.155 317.91ZM745.115 308.686C745.038 309.839 745.038 312.501 746.38 314.398C747.305 315.716 748.735 316.428 750.619 316.566C753.357 316.757 755.529 315.479 757.066 312.764C757.68 311.656 758.146 310.453 758.45 309.193L745.115 308.686Z" fill="#093F68"/>
<path d="M746.669 291.286H746.557L738.073 290.146C737.827 290.111 737.603 289.97 737.45 289.751C737.296 289.533 737.226 289.256 737.255 288.98C737.269 288.843 737.307 288.71 737.367 288.59C737.427 288.469 737.508 288.363 737.605 288.278C737.701 288.193 737.813 288.13 737.931 288.093C738.05 288.057 738.174 288.047 738.297 288.064L746.775 289.197C747.013 289.227 747.231 289.358 747.385 289.563C747.54 289.767 747.618 290.03 747.605 290.298C747.591 290.565 747.486 290.816 747.312 291C747.138 291.184 746.908 291.286 746.669 291.286Z" fill="#093F68"/>
<path d="M775.618 363.225C775.227 362.784 774.726 362.486 774.181 362.369C773.907 362.324 773.628 362.392 773.396 362.561C773.165 362.729 772.996 362.987 772.921 363.285C772.905 363.676 772.997 364.062 773.186 364.392C773.71 365.525 774.275 366.638 774.887 367.686C774.246 366.862 773.863 365.821 773.192 365.05C772.521 364.28 771.373 363.772 770.584 364.392C769.795 365.011 769.854 366.434 770.319 367.403C770.784 368.371 771.549 369.142 771.991 370.13C771.127 368.811 769.935 367.805 768.564 367.238C768.195 367.053 767.786 366.993 767.387 367.066C766.333 367.323 766.097 369.043 766.639 370.058C767.181 371.072 768.158 371.751 768.923 372.607C768.377 371.802 767.69 371.13 766.904 370.631C766.713 370.481 766.496 370.377 766.267 370.324C766.038 370.272 765.802 370.273 765.573 370.328C765.353 370.437 765.164 370.615 765.031 370.84C764.897 371.066 764.824 371.329 764.82 371.599C764.821 372.14 764.936 372.673 765.155 373.154C765.968 375.19 767.352 377.074 769.241 377.766C771.596 378.649 774.258 377.503 775.953 375.5C777.278 373.932 778.85 371.033 778.797 368.786C778.773 366.803 776.93 364.477 775.618 363.225Z" fill="#FFC9B0"/>
<path d="M770.919 378.768C770.293 378.771 769.671 378.66 769.077 378.438C766.568 377.503 765.22 374.913 764.643 373.451C764.383 372.875 764.25 372.238 764.255 371.593C764.267 371.189 764.385 370.798 764.594 370.468C764.803 370.139 765.095 369.886 765.432 369.741C765.584 369.684 765.743 369.65 765.903 369.643C765.753 368.986 765.798 368.291 766.033 367.666C766.142 367.365 766.315 367.097 766.536 366.886C766.758 366.675 767.021 366.527 767.304 366.454C767.806 366.357 768.322 366.428 768.788 366.658C769.051 366.762 769.309 366.883 769.559 367.02C769.371 366.481 769.337 365.89 769.464 365.329C769.591 364.768 769.871 364.265 770.266 363.891C770.57 363.661 770.92 363.52 771.285 363.48C771.65 363.439 772.018 363.501 772.356 363.66C772.335 363.501 772.335 363.339 772.356 363.179C772.454 362.714 772.704 362.306 773.057 362.035C773.41 361.765 773.84 361.651 774.263 361.717C774.932 361.842 775.549 362.197 776.03 362.731C776.813 363.496 779.374 366.197 779.433 368.812C779.491 371.428 777.666 374.531 776.43 375.994C775.725 376.847 774.874 377.532 773.927 378.008C772.98 378.485 771.957 378.743 770.919 378.768ZM765.939 370.96C765.89 370.95 765.84 370.95 765.791 370.96C765.685 371.025 765.595 371.119 765.532 371.235C765.469 371.351 765.434 371.483 765.432 371.619C765.442 372.067 765.549 372.506 765.744 372.897C766.592 375.045 767.952 376.6 769.477 377.173C771.738 378.017 774.187 376.725 775.576 375.071C776.966 373.418 778.302 370.776 778.255 368.832C778.22 367.172 776.618 365.031 775.258 363.706C774.95 363.371 774.561 363.142 774.14 363.047C773.869 363.015 773.551 363.192 773.551 363.403C773.561 363.655 773.632 363.899 773.757 364.108C774.269 365.222 774.835 366.322 775.435 367.402C775.529 367.542 775.569 367.718 775.547 367.891C775.525 368.064 775.442 368.22 775.317 368.325C775.192 368.43 775.035 368.475 774.881 368.45C774.726 368.425 774.587 368.333 774.493 368.193C774.177 367.769 773.892 367.317 773.639 366.842C773.401 366.374 773.123 365.933 772.809 365.525C772.321 364.945 771.479 364.563 770.978 364.971C770.478 365.38 770.537 366.414 770.884 367.139C771.106 367.567 771.36 367.972 771.643 368.351C771.994 368.827 772.303 369.339 772.568 369.88C772.618 370.025 772.62 370.186 772.574 370.333C772.527 370.48 772.436 370.604 772.316 370.683C772.196 370.762 772.055 370.791 771.918 370.764C771.781 370.738 771.656 370.658 771.567 370.539C770.763 369.336 769.665 368.421 768.405 367.903C768.146 367.776 767.863 367.724 767.581 367.752C767.479 367.783 767.385 367.841 767.307 367.921C767.229 368.001 767.17 368.101 767.134 368.213C767.045 368.464 767.007 368.734 767.021 369.004C767.035 369.273 767.102 369.536 767.216 369.774C767.314 369.959 767.426 370.133 767.552 370.295C768.288 370.821 768.934 371.49 769.459 372.271C769.55 372.405 769.592 372.571 769.576 372.738C769.561 372.904 769.49 373.058 769.377 373.167C769.264 373.276 769.119 373.333 768.971 373.327C768.822 373.321 768.681 373.252 768.576 373.134C768.335 372.864 768.07 372.621 767.787 372.357C767.436 372.041 767.104 371.7 766.792 371.336L766.686 371.27C766.466 371.095 766.208 370.988 765.939 370.96Z" fill="#093F68"/>
<path d="M712.233 344.231C712.218 344.854 712.371 345.467 712.674 345.99C712.832 346.243 713.067 346.423 713.335 346.495C713.603 346.568 713.885 346.529 714.129 346.385C714.396 346.13 714.584 345.786 714.664 345.404C715.057 344.196 715.385 342.972 715.648 341.734C715.559 342.814 715.153 343.849 715.094 344.936C715.035 346.023 715.524 347.294 716.478 347.492C717.432 347.69 718.309 346.682 718.615 345.634C718.921 344.587 718.892 343.434 719.204 342.399C718.945 344.009 719.115 345.667 719.692 347.169C719.826 347.588 720.062 347.956 720.375 348.23C721.27 348.889 722.524 347.934 722.83 346.774C723.137 345.614 722.877 344.376 722.907 343.164C722.761 344.161 722.799 345.181 723.019 346.161C723.047 346.426 723.126 346.68 723.25 346.907C723.374 347.134 723.54 347.329 723.737 347.479C723.966 347.593 724.22 347.627 724.467 347.578C724.713 347.529 724.941 347.398 725.121 347.202C725.465 346.836 725.729 346.385 725.892 345.885C726.657 343.822 726.928 341.404 726.08 339.382C725.038 336.878 722.454 335.495 719.987 335.501C718.061 335.501 715.1 336.226 713.681 337.814C712.38 339.204 712.168 342.327 712.233 344.231Z" fill="#FFC9B0"/>
<path d="M721.052 349.113C720.702 349.112 720.36 348.996 720.069 348.777C719.666 348.44 719.356 347.984 719.174 347.459C719.068 347.176 718.968 346.879 718.886 346.583C718.665 347.108 718.304 347.542 717.852 347.826C717.401 348.109 716.881 348.227 716.366 348.164C716.008 348.076 715.676 347.889 715.398 347.621C715.121 347.353 714.907 347.012 714.776 346.629C714.687 346.753 714.582 346.862 714.464 346.952C714.095 347.194 713.659 347.273 713.24 347.173C712.822 347.073 712.452 346.801 712.203 346.412C711.829 345.785 711.635 345.044 711.65 344.29C711.603 343.124 711.585 339.191 713.246 337.333C714.906 335.475 718.168 334.829 719.969 334.829C722.866 334.829 725.521 336.542 726.587 339.092C727.705 341.773 726.958 344.646 726.41 346.122C726.215 346.73 725.892 347.277 725.468 347.716C725.202 347.984 724.872 348.159 724.519 348.22C724.165 348.281 723.804 348.225 723.478 348.059C723.336 347.974 723.205 347.868 723.089 347.743C722.767 348.315 722.288 348.757 721.724 349.001C721.507 349.08 721.28 349.118 721.052 349.113ZM719.233 341.74C719.284 341.734 719.335 341.734 719.386 341.74C719.528 341.784 719.65 341.885 719.728 342.024C719.807 342.163 719.836 342.33 719.81 342.491C719.575 343.974 719.733 345.502 720.263 346.886C720.356 347.187 720.519 347.456 720.734 347.663C720.822 347.724 720.921 347.76 721.024 347.768C721.126 347.776 721.229 347.756 721.323 347.71C721.548 347.61 721.751 347.455 721.916 347.257C722.081 347.058 722.204 346.822 722.277 346.563C722.33 346.359 722.366 346.149 722.383 345.937C722.214 344.982 722.198 344 722.336 343.038C722.343 342.952 722.366 342.868 722.402 342.791C722.438 342.714 722.488 342.646 722.548 342.591C722.608 342.535 722.677 342.494 722.751 342.468C722.825 342.443 722.903 342.434 722.981 342.442C723.058 342.45 723.133 342.475 723.202 342.516C723.27 342.557 723.331 342.612 723.38 342.679C723.43 342.746 723.467 342.824 723.49 342.907C723.513 342.99 723.521 343.077 723.513 343.164C723.513 343.546 723.513 343.928 723.549 344.336C723.578 344.841 723.578 345.347 723.549 345.852C723.556 345.896 723.566 345.94 723.578 345.983C723.678 346.451 723.819 346.741 723.996 346.84C724.115 346.883 724.241 346.89 724.363 346.858C724.484 346.827 724.596 346.759 724.685 346.662C724.954 346.353 725.156 345.979 725.274 345.568C726.08 343.401 726.151 341.227 725.474 339.599C724.461 337.181 721.941 336.101 719.916 336.101C717.979 336.101 715.253 336.845 714.029 338.222C712.975 339.395 712.692 342.175 712.769 344.152C712.752 344.638 712.862 345.119 713.087 345.535C713.257 345.779 713.587 345.904 713.746 345.786C713.905 345.604 714.013 345.376 714.058 345.127C714.429 343.948 714.753 342.729 715.024 341.516C715.049 341.342 715.136 341.186 715.265 341.082C715.393 340.979 715.553 340.937 715.709 340.966C715.866 340.995 716.005 341.092 716.097 341.236C716.19 341.38 716.227 341.559 716.201 341.734C716.143 342.282 716.047 342.824 715.913 343.355C715.782 343.863 715.694 344.383 715.648 344.909C715.612 345.713 715.942 346.655 716.548 346.787C717.155 346.919 717.791 346.128 718.02 345.371C718.141 344.896 718.23 344.411 718.285 343.921C718.347 343.307 718.466 342.702 718.639 342.116C718.69 341.992 718.776 341.889 718.882 341.822C718.989 341.755 719.111 341.726 719.233 341.74Z" fill="#093F68"/>
<path d="M720.493 347.69C719.934 347.426 719.333 347.292 718.727 347.294C718.428 347.3 718.138 347.415 717.903 347.622C717.668 347.829 717.5 348.117 717.426 348.441C717.125 350.648 720.993 351.801 722.324 351.887C722.606 351.934 722.893 351.917 723.169 351.838C723.446 351.759 723.705 351.619 723.931 351.425C726.098 349.139 721.771 348.171 720.493 347.69Z" fill="#FFC9B0"/>
<path d="M722.636 352.552H722.312C721.4 352.499 718.533 351.834 717.355 350.213C717.16 349.96 717.016 349.663 716.932 349.343C716.848 349.023 716.825 348.686 716.866 348.355C716.961 347.883 717.194 347.459 717.527 347.15C717.861 346.841 718.276 346.665 718.709 346.649C719.346 346.642 719.978 346.774 720.57 347.038L720.681 347.084C720.835 347.143 721.041 347.209 721.27 347.281C723.113 347.881 724.803 348.527 725.085 349.877C725.142 350.26 725.104 350.652 724.975 351.013C724.847 351.373 724.632 351.686 724.355 351.92C723.877 352.371 723.261 352.597 722.636 352.552ZM718.915 347.94H718.797C718.462 347.973 718.073 348.204 718.032 348.533C718.014 348.683 718.026 348.835 718.068 348.979C718.109 349.123 718.18 349.254 718.273 349.363C719.062 350.457 721.37 351.155 722.395 351.221C722.804 351.304 723.227 351.205 723.572 350.945C723.743 350.76 724.02 350.417 723.967 350.174C723.814 349.449 721.747 348.777 720.97 348.527C720.717 348.447 720.499 348.375 720.328 348.309L720.216 348.27C719.801 348.084 719.362 347.975 718.915 347.947V347.94Z" fill="#093F68"/>
<path d="M750.166 338.328H750.125C749.97 338.316 749.825 338.236 749.722 338.105C749.62 337.974 749.568 337.803 749.577 337.629L750.213 326.231C750.218 326.145 750.237 326.06 750.271 325.982C750.305 325.904 750.352 325.834 750.41 325.777C750.468 325.719 750.536 325.675 750.609 325.647C750.682 325.618 750.76 325.607 750.837 325.612C750.914 325.617 750.99 325.639 751.06 325.677C751.13 325.715 751.192 325.768 751.243 325.832C751.295 325.897 751.334 325.973 751.36 326.055C751.385 326.137 751.395 326.224 751.391 326.31L750.749 337.708C750.74 337.875 750.675 338.032 750.567 338.147C750.458 338.262 750.315 338.326 750.166 338.328Z" fill="#093F68"/>
<path d="M757.466 313.966H757.419L744.72 312.772C744.565 312.757 744.421 312.674 744.321 312.54C744.22 312.407 744.171 312.234 744.184 312.06C744.198 311.886 744.272 311.725 744.391 311.613C744.511 311.5 744.665 311.445 744.82 311.46L757.502 312.647C757.658 312.654 757.805 312.73 757.911 312.859C758.017 312.988 758.073 313.158 758.067 313.333C758.061 313.508 757.993 313.673 757.878 313.792C757.763 313.91 757.611 313.973 757.455 313.966H757.466Z" fill="#093F68"/>
<path d="M716.201 317.02C716.201 317.02 715.642 322.416 712.798 323.444C712.798 323.444 716.23 323.734 716.66 328.57C716.66 328.57 716.507 323.727 719.663 322.93C719.663 322.93 717.32 323.734 716.201 317.02Z" fill="#FFBC0E"/>
<path d="M716.66 329.222C716.514 329.223 716.372 329.163 716.263 329.053C716.155 328.943 716.086 328.792 716.072 328.629C715.695 324.432 712.863 324.116 712.745 324.103C712.609 324.092 712.48 324.028 712.381 323.922C712.283 323.816 712.22 323.675 712.204 323.523C712.188 323.371 712.22 323.218 712.294 323.089C712.368 322.961 712.479 322.865 712.61 322.818C714.653 322.08 715.471 318.325 715.612 316.941C715.63 316.781 715.699 316.633 715.808 316.526C715.916 316.419 716.056 316.36 716.201 316.362C716.34 316.359 716.475 316.411 716.582 316.508C716.69 316.606 716.764 316.743 716.79 316.895C717.379 320.605 718.379 321.758 718.903 322.107C719.077 322.239 719.282 322.308 719.492 322.304H719.545C719.697 322.259 719.858 322.283 719.994 322.37C720.13 322.458 720.229 322.603 720.269 322.772C720.31 322.942 720.289 323.122 720.21 323.274C720.132 323.426 720.003 323.537 719.851 323.583H719.775C717.172 324.241 717.267 328.504 717.267 328.544C717.267 328.711 717.211 328.872 717.109 328.994C717.007 329.116 716.868 329.191 716.719 329.202L716.66 329.222ZM714.264 323.293C715.206 323.784 715.984 324.599 716.484 325.618C716.762 324.617 717.301 323.732 718.032 323.075C717.15 322.201 716.52 321.055 716.219 319.781C715.851 321.114 715.177 322.316 714.264 323.266V323.293Z" fill="#093F68"/>
<path d="M786.939 338.598C786.939 338.598 786.38 344 783.53 345.028C783.53 345.028 786.963 345.311 787.393 350.147C787.393 350.147 787.245 345.311 790.395 344.514C790.407 344.514 788.064 345.311 786.939 338.598Z" fill="#FFBC0E"/>
<path d="M787.404 350.806C787.258 350.807 787.116 350.747 787.007 350.637C786.899 350.527 786.83 350.376 786.816 350.213C786.439 346.016 783.613 345.7 783.489 345.687C783.353 345.676 783.224 345.612 783.125 345.506C783.027 345.4 782.964 345.259 782.948 345.107C782.932 344.955 782.964 344.802 783.038 344.673C783.112 344.544 783.223 344.449 783.354 344.402C785.809 343.513 786.35 338.571 786.356 338.525C786.351 338.351 786.408 338.181 786.514 338.053C786.621 337.925 786.768 337.85 786.924 337.843C787.081 337.837 787.232 337.901 787.347 338.02C787.461 338.139 787.528 338.304 787.534 338.479C788.123 342.103 789.076 343.276 789.589 343.651C789.775 343.818 790.011 343.898 790.248 343.875H790.283C790.427 343.839 790.578 343.865 790.705 343.947C790.833 344.03 790.928 344.163 790.973 344.32C791.017 344.477 791.007 344.647 790.945 344.797C790.883 344.946 790.773 345.064 790.636 345.127H790.56H790.513C787.911 345.825 787.999 350.049 787.999 350.095C787.999 350.262 787.943 350.423 787.841 350.545C787.74 350.667 787.6 350.742 787.451 350.754L787.404 350.806ZM785.014 344.877C785.955 345.366 786.731 346.182 787.228 347.202C787.504 346.198 788.046 345.312 788.782 344.659C787.897 343.787 787.264 342.64 786.963 341.365C786.597 342.697 785.925 343.899 785.014 344.85V344.877Z" fill="#093F68"/>
<path d="M781.64 318.707C781.64 318.707 780.416 322.107 778.396 322.212C778.396 322.212 780.587 323.082 780.098 326.31C780.098 326.31 780.769 323.134 782.947 323.246C782.936 323.246 781.281 323.299 781.64 318.707Z" fill="#FFBC0E"/>
<path d="M780.086 326.969C780.047 326.976 780.007 326.976 779.968 326.969C779.819 326.935 779.687 326.838 779.601 326.698C779.514 326.558 779.479 326.386 779.503 326.218C779.892 323.642 778.361 322.924 778.185 322.845C778.056 322.792 777.949 322.69 777.88 322.558C777.811 322.426 777.786 322.271 777.808 322.12C777.829 321.971 777.896 321.834 777.997 321.733C778.097 321.633 778.226 321.574 778.361 321.567C779.703 321.501 780.781 319.313 781.081 318.477C781.135 318.332 781.233 318.214 781.358 318.143C781.482 318.072 781.626 318.053 781.762 318.09C781.898 318.126 782.018 318.216 782.1 318.342C782.182 318.468 782.222 318.624 782.212 318.78C781.988 321.784 782.659 322.555 782.948 322.601C783.104 322.601 783.253 322.67 783.364 322.794C783.474 322.917 783.536 323.085 783.536 323.26C783.536 323.435 783.474 323.602 783.364 323.726C783.253 323.849 783.104 323.919 782.948 323.919H782.818C781.205 323.919 780.651 326.455 780.645 326.482C780.612 326.62 780.54 326.742 780.439 326.83C780.338 326.918 780.214 326.967 780.086 326.969ZM779.709 322.43C780.073 322.838 780.349 323.334 780.516 323.879C780.802 323.475 781.161 323.142 781.57 322.904C781.283 322.344 781.107 321.722 781.052 321.079C780.683 321.618 780.228 322.076 779.709 322.43Z" fill="#093F68"/>
<path fill-rule="evenodd" clip-rule="evenodd" d="M93.5023 285.363C95.953 283.303 99.8552 283.386 102.2 285.533L106.474 289.447C108.828 291.601 108.907 295.171 106.66 297.411L50.8321 353.073C48.5816 355.317 44.8488 355.389 42.4936 353.232L32.538 344.116C30.1834 341.96 30.2658 338.538 32.7118 336.481L93.5023 285.363Z" fill="#BD7575"/>
<path fill-rule="evenodd" clip-rule="evenodd" d="M68.5365 335.421L60.3691 343.564L43.0965 327.748L51.9899 320.27L68.5365 335.421Z" fill="#DFCC00"/>
<path fill-rule="evenodd" clip-rule="evenodd" d="M10.9521 374.298C10.9521 374.298 31.3081 373.885 36.8045 368.852C42.3009 363.819 42.3009 355.66 36.8045 350.627C31.3081 345.594 22.3966 345.594 16.9002 350.627C11.4038 355.66 10.9521 374.298 10.9521 374.298Z" fill="#FB3A3A"/>
<path d="M787.1 58.1173C784.772 54.9237 779.978 59.3387 774.85 54.4924C771.888 51.6936 777.936 39.0221 773.992 35.2952C770.048 31.5683 757.164 28.3384 749.802 35.2952C742.44 42.252 746.807 48.8435 734.251 48.285C734.239 48.2843 734.228 48.2845 734.217 48.2841C726.72 47.8506 719.486 50.0607 714.212 55.0445C703.405 65.2567 704.916 83.2417 717.586 95.2147C730.257 107.188 749.29 108.616 760.097 98.4034C765.351 93.4384 767.693 86.636 767.257 79.5804C767.944 70.8249 770.74 70.5882 776.604 70.7476C785.642 70.9936 789.428 61.3109 787.1 58.1173Z" fill="#E2A042"/>
<path d="M747.986 57.7726L801.247 12.1119C801.868 11.5755 802.826 11.5959 803.422 12.1582L805.645 14.2593C806.24 14.8215 806.262 15.7269 805.694 16.3139L757.373 66.6438C756.768 67.2695 755.733 67.2916 755.099 66.6924L747.934 59.9223C747.3 59.3226 747.323 58.3444 747.986 57.7726Z" fill="#A36119"/>
<path d="M744.96 78.582C744.214 78.582 743.468 78.3131 742.899 77.7754L736.042 71.2957C734.904 70.2204 734.904 68.4768 736.042 67.4013C737.18 66.3257 739.025 66.3257 740.163 67.4013L747.02 73.881C748.159 74.9563 748.159 76.6998 747.02 77.7754C746.451 78.3131 745.705 78.582 744.96 78.582Z" fill="#FFE1AB"/>
<path d="M813.786 7.93011C813.588 7.74318 813.268 7.74318 813.07 7.93011L761.677 56.4938C761.417 56.06 761.109 55.6454 760.754 55.2555L811.953 6.87481C812.151 6.68767 812.151 6.38444 811.953 6.19751C811.755 6.01058 811.434 6.01058 811.236 6.19751L760.048 54.5676C759.647 54.2225 759.218 53.9223 758.77 53.6652L810.119 5.14221C810.317 4.95507 810.317 4.65184 810.119 4.46491C809.921 4.27797 809.601 4.27797 809.403 4.46491L757.827 53.2019C754.802 51.9425 751.141 52.4812 748.664 54.8225C746.186 57.1638 745.616 60.6231 746.949 63.4812L732.903 76.7533L731.126 75.0742C730.051 74.058 728.246 74.2938 727.502 75.5474L725.512 78.9042C725.01 79.7511 725.165 80.8103 725.891 81.4969L732.267 87.522C732.994 88.2084 734.115 88.3548 735.011 87.8803L738.563 85.9996C739.89 85.2971 740.14 83.5916 739.064 82.5753L737.287 80.896L751.397 67.5628C754.376 68.7025 757.916 68.1312 760.332 65.8485C762.747 63.5661 763.352 60.2203 762.146 57.4055L813.786 8.60762C813.984 8.42048 813.984 8.11725 813.786 7.93011ZM747.439 64.3725C747.711 64.7965 748.029 65.2016 748.394 65.5806L734.737 78.4861L733.62 77.4308L747.439 64.3725ZM736.57 80.2187L735.453 79.1634L749.122 66.2474C749.534 66.5831 749.973 66.8739 750.432 67.1199L736.57 80.2187Z" fill="#2B3B47"/>
<path d="M797.254 12.0185L808.943 0.972629C809.814 0.149912 811.225 0.149912 812.096 0.972629L817.347 5.93434C818.218 6.75706 818.218 8.091 817.347 8.91392L805.658 19.9598C804.787 20.7825 803.375 20.7825 802.505 19.9598L797.254 14.9981C796.383 14.1751 796.383 12.8412 797.254 12.0185Z" fill="#E2A042"/>
<path d="M807.776 1.74576C808.344 2.2824 808.172 3.31435 807.393 4.05052C806.614 4.78669 805.522 4.94863 804.954 4.41179C804.386 3.87495 804.558 2.8432 805.337 2.10703C806.116 1.37086 807.208 1.20912 807.776 1.74576ZM801.895 5.35865C801.116 6.09482 800.945 7.12678 801.513 7.66342C802.081 8.20005 803.173 8.03832 803.952 7.30215C804.731 6.56598 804.903 5.53402 804.334 4.99738C803.767 4.46075 802.675 4.62248 801.895 5.35865ZM798.455 8.61027C797.675 9.34644 797.504 10.3784 798.072 10.915C798.64 11.4517 799.732 11.2899 800.511 10.5538C801.29 9.8176 801.462 8.78564 800.894 8.249C800.326 7.71216 799.234 7.8741 798.455 8.61027ZM814.225 10.5063C813.446 11.2424 813.274 12.2744 813.843 12.811C814.41 13.3477 815.503 13.1859 816.282 12.4498C817.061 11.7136 817.232 10.6816 816.664 10.145C816.096 9.60836 815.004 9.77009 814.225 10.5063ZM810.784 13.7579C810.005 14.4941 809.833 15.526 810.402 16.0626C810.97 16.5993 812.062 16.4375 812.841 15.7014C813.62 14.9652 813.791 13.9333 813.223 13.3966C812.655 12.8598 811.563 13.0217 810.784 13.7579ZM807.343 17.0095C806.564 17.7457 806.392 18.7776 806.961 19.3143C807.528 19.8509 808.62 19.6892 809.4 18.953C810.179 18.2168 810.35 17.1849 809.782 16.6482C809.214 16.1114 808.122 16.2731 807.343 17.0095Z" fill="#A36119"/>
</svg>
